<?xml version="1.0" encoding="utf-8"?>
<!-- Generator: Adobe Illustrator 19.2.0, SVG Export Plug-In . SVG Version: 6.00 Build 0)  -->
<svg version="1.1" id="Layer_1" xmlns="http://www.w3.org/2000/svg" xmlns:xlink="http://www.w3.org/1999/xlink" x="0px" y="0px"
	 viewBox="0 0 1559 1114.7" style="enable-background:new 0 0 1559 1114.7;" xml:space="preserve">
<style type="text/css">
	.st0{fill-rule:evenodd;clip-rule:evenodd;fill:none;}
	.st1{fill:#FFFFFF;}
	.st2{font-family:'Museo-700';}
	.st3{font-size:144.8553px;}
	.st4{font-family:'Museo-500';}
	.st5{font-size:123.5285px;}
	.st6{opacity:0.7;fill:#FFFFFF;}
	.st7{fill:#F0EB5E;}
	.st8{fill:#DE3730;}
	.st9{fill:#57A6DB;}
	.st10{fill:#E3673C;}
	.st11{fill:#5FB454;}
	.st12{fill:#662C80;}
	.st13{fill:none;stroke:#424243;stroke-width:11.2443;stroke-linecap:round;stroke-linejoin:round;stroke-miterlimit:10;}
</style>
<g>
	<rect x="20.8" y="804.1" class="st0" width="1552.6" height="127.7"/>
	<text transform="matrix(1 0 0 1 20.8283 906.9021)" class="st1 st2 st3">Passion Family Dental</text>
	<polygon class="st0" points="1519.7,1167.4 12.5,1167.4 41,1003.8 1548.3,1003.8 	"/>
	<text transform="matrix(0.9851 0 -0.172 0.9851 438.3077 1089.7421)" class="st1 st4 st5">North Lakes</text>
	<rect x="24.7" y="954.7" class="st6" width="1507.7" height="6.8"/>
</g>
<g>
	<ellipse class="st7" cx="792.9" cy="354.5" rx="323.3" ry="326.1"/>
	<path class="st8" d="M601.1,186.6c0,0,23.1,20.3-26,58.4c-49.1,38.1-70.7-37.8-70.7-37.8v0C548.8,118.9,631.8,53.8,731,34.4
		C620.8,86.6,601.1,186.6,601.1,186.6z"/>
	<path class="st9" d="M1083,210.4C1083,210.4,1083,210.4,1083,210.4c-55.1-74.3-383,246.3-352,290.1c39.9,9.7,102.1,81.9,44.5,107.1
		c-57.6,25.1-123.3-46.1-184.1-108.7c-57.6-82.7-66.1-197.8-28.4-280.7c0,0-8.1-27.6,47-81.9C749.5-24.4,947.2,67.8,947.2,67.8
		C1005.8,100,1053.4,149.9,1083,210.4z"/>
	<path class="st8" d="M1116.2,354.5c0,21.4-2,42.3-5.9,62.6c-30.7,18-454.6-139.4-347.7-243.5c56-57.6,153.7-67.7,215-47.1
		c44.7,15.1,82.6,47.2,98.5,70.4h0C1101.6,243.6,1116.2,297.3,1116.2,354.5z"/>
	<path class="st10" d="M1115.8,371.1c-5.2,104.7-59.4,196.4-139.9,252.2l-101.5-81.5c0,0-43.3,51.6-67.7,23.5
		c-31.4-36.1,21.1-75.4,17.4-111.1c1.6-24.3,120.1-268.9,174-268.1C1125.1,239.3,1114.6,370.6,1115.8,371.1L1115.8,371.1z"/>
	<path class="st11" d="M927,651.3c-40.8,18.8-86.2,29.3-134,29.3c-89.7,0-170.8-36.8-229.4-96.3c-10.3-27.8-6.3-117.4,60.2-85.8
		C752.4,730,922.7,650.8,922.7,650.8C924.8,650.4,926.1,650.6,927,651.3z"/>
	<path class="st12" d="M1052.5,548.9L1052.5,548.9c-33.1,44.9-77.3,80.9-128.6,103.8c0,0,0,0,0,0c-14.6-20.4-6.1-43.9,0-54.8
		C951.9,552.8,1052.5,548.9,1052.5,548.9z"/>
	<path class="st1" d="M581.9,199.3c0,0,13.4-43.5,88.3-46c17.9-0.6,27.1,4.3,51.6,8.1c19.6,3,35.6,7.1,74.8,9.2
		c0,0,11.3,0.6,29.7-1.6c9.1-1.1,20.1-3.3,32.7-5.2c9.2-1.4,19.1-1.9,30.2-4.5c49.5-11.4,87.7-11.7,107.8,17.7
		c0,0,31.1,74.9,5.1,173.9c-26,99-36,133.6-36,133.6s-39.3,178.8-102.2,125.7c-17.3-43.6-25.6-100-26.3-103.8
		c-0.7-3.8-5.1-42.6-30.4-64.3c0,0-37.7-29-52.3,46.7s-19.5,141.5-59.5,127.5c-24.3-15.6-123.9-195.7-125.2-355.8
		C570.2,226.6,581.9,199.3,581.9,199.3z"/>
	<path class="st13" d="M849,234.4c0,0-32.9-19-71.3-37.8c-28.2-13.8-58.8-28-84.5-31.7c-27.1-3.9-55.7-0.6-77.4,11
		c-26.8,14.3-44,40.7-45.5,76.7c-0.6,14.3,0.3,34.8,3.2,58.7c4.5,36,16.7,82.1,30,121.5c9,26.6,19.8,52.3,29.2,76.6
		c10.9,28.3,22.1,54.8,35.1,78.1c4.2,7.5,10.5,14.3,16.9,19.1c8.6,6.4,17.5,9.6,22.7,9.6c11.1,0,18.8-7.3,23.8-16.4
		c8.2-15.2,9.1-35.4,9.1-35.4s3.3-30.9,9.4-66.1c3.9-22.5,7.9-44.2,19.3-56.8c11.1-12.3,31.3-14.1,50.6,0.5"/>
	<path class="st13" d="M799.5,178.9c0,0,9.2,3.5,21.8,4.1c10.6,0.6,24.5-1.5,36.6-3.3c26.4-4.1,68.9-26.9,103.8-17.1
		c25.1,7.1,50.6,30.1,52.5,91.7c0.7,23.9-1.8,56-10.4,90.5"/>
	<path class="st13" d="M835.5,508.6c0,0,7.7,21.1,11.1,58.1c2.8,31.1,20.5,53.1,35.6,54.7c4.7,0.5,17.1,0.8,31.8-13.8
		c8.8-8.8,18.1-25.8,27.8-45.8c24.3-50.3,48.5-147.1,54.3-172.4"/>
</g>
</svg>
