<?xml version="1.0" encoding="utf-8"?>
<!-- Generator: Adobe Illustrator 19.2.0, SVG Export Plug-In . SVG Version: 6.00 Build 0)  -->
<svg version="1.1" id="Layer_1" xmlns="http://www.w3.org/2000/svg" xmlns:xlink="http://www.w3.org/1999/xlink" x="0px" y="0px"
	 viewBox="0 0 2343.4 531.7" style="enable-background:new 0 0 2343.4 531.7;" xml:space="preserve">
<style type="text/css">
	.st0{fill-rule:evenodd;clip-rule:evenodd;fill:none;}
	.st1{fill:#343535;}
	.st2{font-family:'Museo-700';}
	.st3{font-size:150.7891px;}
	.st4{font-family:'Museo-500';}
	.st5{font-size:128.5888px;}
	.st6{fill:#808081;}
	.st7{fill:#F0EB5E;}
	.st8{fill:#DE3730;}
	.st9{fill:#57A6DB;}
	.st10{fill:#E3673C;}
	.st11{fill:#5FB454;}
	.st12{fill:#662C80;}
	.st13{fill:#FFFFFF;}
	.st14{fill:none;stroke:#424243;stroke-width:11.2443;stroke-linecap:round;stroke-linejoin:round;stroke-miterlimit:10;}
</style>
<rect x="691.5" y="111.1" class="st0" width="1616.2" height="132.9"/>
<text transform="matrix(1 0 0 1 691.4958 218.1926)" class="st1 st2 st3">Passion Family Dental</text>
<polygon class="st0" points="2251.8,489.4 682.8,489.4 712.5,319.1 2281.5,319.1 "/>
<text transform="matrix(0.9851 0 -0.172 0.9851 1126.0878 408.5209)" class="st1 st4 st5">North Lakes</text>
<rect x="695.5" y="268" class="st6" width="1569.4" height="7.1"/>
<ellipse class="st7" cx="304.3" cy="280.3" rx="229.2" ry="231.3"/>
<path class="st8" d="M168.3,161.2c0,0,16.4,14.4-18.4,41.4c-34.8,27-50.1-26.8-50.1-26.8v0C131.2,113.2,190.1,67,260.4,53.2
	C182.3,90.3,168.3,161.2,168.3,161.2z"/>
<path class="st9" d="M510,178.1C510,178.1,510,178.1,510,178.1C471,125.4,238.4,352.7,260.4,383.8c28.3,6.9,72.4,58.1,31.5,75.9
	c-40.8,17.8-87.4-32.7-130.6-77.1c-40.8-58.7-46.9-140.3-20.1-199c0,0-5.8-19.6,33.4-58.1C273.5,11.6,413.7,77,413.7,77
	C455.3,99.8,489,135.2,510,178.1z"/>
<path class="st8" d="M533.6,280.3c0,15.2-1.5,30-4.2,44.4C507.6,337.4,207,225.8,282.7,152c39.7-40.8,109-48,152.4-33.4
	c31.7,10.7,58.6,33.5,69.9,49.9h0C523.2,201.6,533.6,239.7,533.6,280.3z"/>
<path class="st10" d="M533.3,292.1c-3.7,74.2-42.1,139.3-99.2,178.9l-72-57.8c0,0-30.7,36.6-48,16.7c-22.3-25.6,15-53.5,12.4-78.8
	c1.2-17.3,85.1-190.7,123.4-190.1C539.9,198.6,532.5,291.7,533.3,292.1L533.3,292.1z"/>
<path class="st11" d="M399.4,490.8c-29,13.3-61.1,20.8-95,20.8c-63.6,0-121.1-26.1-162.7-68.3c-7.3-19.7-4.5-83.3,42.7-60.8
	c91.2,164.2,212,108.1,212,108.1C397.8,490.1,398.8,490.3,399.4,490.8z"/>
<path class="st12" d="M488.4,418.1L488.4,418.1c-23.5,31.8-54.8,57.4-91.2,73.6c0,0,0,0,0,0c-10.4-14.4-4.3-31.1,0-38.9
	C417.1,420.9,488.4,418.1,488.4,418.1z"/>
<path class="st13" d="M154.7,170.2c0,0,9.5-30.9,62.6-32.6c12.7-0.4,19.2,3.1,36.6,5.7c13.9,2.1,25.2,5,53.1,6.6c0,0,8,0.4,21.1-1.1
	c6.4-0.8,14.2-2.4,23.2-3.7c6.6-1,13.6-1.4,21.4-3.2c35.1-8.1,62.2-8.3,76.4,12.6c0,0,22,53.1,3.6,123.3
	c-18.4,70.2-25.5,94.7-25.5,94.7s-27.9,126.8-72.5,89.2c-12.3-30.9-18.1-70.9-18.7-73.6s-3.6-30.2-21.5-45.6
	c0,0-26.7-20.6-37.1,33.1c-10.4,53.7-13.8,100.4-42.2,90.5c-17.3-11.1-87.9-138.8-88.8-252.3C146.4,189.6,154.7,170.2,154.7,170.2z"
	/>
<path class="st14" d="M344.1,195.1c0,0-23.3-13.5-50.6-26.8c-20-9.8-41.7-19.9-59.9-22.5c-19.2-2.7-39.5-0.4-54.9,7.8
	c-19,10.1-31.2,28.9-32.2,54.4c-0.4,10.1,0.2,24.7,2.3,41.7c3.2,25.5,11.8,58.2,21.2,86.2c6.4,18.9,14,37.1,20.7,54.3
	c7.8,20.1,15.7,38.9,24.9,55.4c3,5.3,7.4,10.2,12,13.6c6.1,4.5,12.4,6.8,16.1,6.8c7.8,0,13.4-5.2,16.8-11.6
	c5.8-10.8,6.5-25.1,6.5-25.1s2.3-21.9,6.7-46.9c2.8-15.9,5.6-31.4,13.7-40.3c7.9-8.7,22.2-10,35.9,0.4"/>
<path class="st14" d="M309,155.7c0,0,6.5,2.5,15.5,2.9c7.5,0.4,17.4-1,25.9-2.4c18.7-2.9,48.9-19.1,73.6-12.1
	c17.8,5,35.9,21.3,37.3,65c0.5,17-1.3,39.7-7.4,64.2"/>
<path class="st14" d="M334.5,389.6c0,0,5.5,15,7.9,41.2c2,22,14.6,37.6,25.2,38.8c3.4,0.4,12.1,0.6,22.6-9.8
	c6.3-6.2,12.8-18.3,19.7-32.5c17.3-35.7,34.4-104.3,38.5-122.2"/>
</svg>
