<svg width="35" height="37" xmlns="http://www.w3.org/2000/svg">
  <g fill="#FFF" fill-rule="nonzero">
    <path d="M31.365 15.656h-.12a13.748 13.748 0 0 0-8.647-11.08 7.188 7.188 0 0 0-4.48-1.565h-1.63A1.385 1.385 0 0 1 15.302.912.602.602 0 0 0 14.784 0h-.279c-.155 0-.31.01-.464.028A5.393 5.393 0 0 0 9.189 6.4a13.918 13.918 0 0 0-5.399 9.256h-.123a3.613 3.613 0 1 0 0 7.226h.015c.356 7.64 6.84 13.545 14.48 13.189A13.85 13.85 0 0 0 31.35 22.88h.015a3.613 3.613 0 1 0 0-7.225zM3.667 17.462v4.215a2.409 2.409 0 0 1 0-4.817h.018c-.01.2-.018.4-.018.602zM30.16 22.28c0 6.983-5.661 12.645-12.645 12.645S4.871 29.263 4.871 22.28v-4.818a12.7 12.7 0 0 1 4.706-9.837 5.436 5.436 0 0 0 4.932 3.214h1.803V9.634h-1.803A4.234 4.234 0 0 1 10.563 6.9a4.146 4.146 0 0 1 .127-3.251c-.018.397.025.795.128 1.179a4.08 4.08 0 0 0 3.928 3.001h2.168a3.014 3.014 0 0 1 3.01 3.01h1.205a4.22 4.22 0 0 0-4.215-4.214h-2.168a2.873 2.873 0 0 1-2.77-2.114 2.616 2.616 0 0 1 1.945-3.24 2.572 2.572 0 0 0 .314 1.631 2.56 2.56 0 0 0 2.254 1.314h1.63a6.028 6.028 0 0 1 6.02 6.022v.602h1.205v-.602a7.165 7.165 0 0 0-.802-3.294 12.557 12.557 0 0 1 5.62 10.52v4.817zm1.204-.603v-4.215c0-.202-.013-.401-.022-.602h.022a2.409 2.409 0 0 1 0 4.817z"/>
    <path d="M9.688 15.054a2.409 2.409 0 1 0 0 4.817 2.409 2.409 0 0 0 0-4.817zm0 3.613a1.204 1.204 0 1 1 0-2.409 1.204 1.204 0 0 1 0 2.409zM25.344 15.054a2.409 2.409 0 1 0 0 4.817 2.409 2.409 0 0 0 0-4.817zm0 3.613a1.204 1.204 0 1 1 0-2.409 1.204 1.204 0 0 1 0 2.409zM23.538 21.677H11.495a.602.602 0 0 0-.603.603 6.624 6.624 0 0 0 13.248 0 .602.602 0 0 0-.602-.603zm-5.42 1.205h1.204v1.204h-1.204v-1.204zm-2.408 0h1.204v1.204H15.71v-1.204zm1.208 4.788a5.42 5.42 0 0 1-4.788-4.788h2.375v1.806c0 .333.27.602.603.602h4.817c.332 0 .602-.27.602-.602v-1.806h2.375a5.42 5.42 0 0 1-5.984 4.788z"/>
  </g>
</svg>
