<svg width="35" height="35" xmlns="http://www.w3.org/2000/svg">
  <g fill="#FFF" fill-rule="nonzero" stroke="#FFF" stroke-width=".1">
    <path d="M6.647 3.732a.565.565 0 0 0-.464-.463 2.187 2.187 0 0 1-1.797-1.798.566.566 0 0 0-1.115 0A2.187 2.187 0 0 1 1.474 3.27a.566.566 0 0 0 0 1.115 2.187 2.187 0 0 1 1.797 1.798.566.566 0 0 0 1.115 0 2.187 2.187 0 0 1 1.797-1.798.565.565 0 0 0 .464-.652zm-2.818.902a3.32 3.32 0 0 0-.808-.807 3.32 3.32 0 0 0 .808-.808c.22.314.493.587.807.808a3.32 3.32 0 0 0-.807.807zM23.466 4.391a8.072 8.072 0 0 0-3.182.654 5.916 5.916 0 0 1-4.637 0 8.072 8.072 0 0 0-11.253 7.42 17.748 17.748 0 0 0 2.7 9.416l.163.26 2.441 10.744a2.627 2.627 0 0 0 5.154-.15l1.697-10.176a1.437 1.437 0 0 1 2.835 0l1.697 10.175a2.628 2.628 0 0 0 5.154.15l2.441-10.744.162-.26a17.747 17.747 0 0 0 2.7-9.416 8.072 8.072 0 0 0-8.072-8.073zm4.412 16.892l-.213.339a.588.588 0 0 0-.072.174L25.13 32.632a1.497 1.497 0 0 1-2.936-.085L20.5 22.372a2.568 2.568 0 0 0-5.066 0l-1.696 10.175a1.496 1.496 0 0 1-2.936.086L8.34 21.797a.588.588 0 0 0-.072-.175l-.213-.339a16.625 16.625 0 0 1-2.529-8.819 6.95 6.95 0 0 1 6.941-6.941 6.91 6.91 0 0 1 2.735.561 7.045 7.045 0 0 0 5.53 0 6.942 6.942 0 0 1 9.676 6.38c0 3.119-.876 6.175-2.53 8.819z"/>
    <path d="M10.615 8.35l-.114-.554c-1.13.227-3.28 1.462-3.28 4.513h1.132c0-2.868 2.278-3.384 2.375-3.405l-.113-.554zM11.745 7.785h1.131v1.131h-1.131zM34.921 27.483a.565.565 0 0 0-.463-.464 2.187 2.187 0 0 1-1.797-1.797.566.566 0 0 0-1.115 0 2.187 2.187 0 0 1-1.798 1.797.566.566 0 0 0 0 1.116 2.187 2.187 0 0 1 1.798 1.797.566.566 0 0 0 1.115 0 2.187 2.187 0 0 1 1.797-1.797.565.565 0 0 0 .463-.652zm-2.818.902a3.32 3.32 0 0 0-.807-.808 3.32 3.32 0 0 0 .807-.807c.22.313.494.587.808.807a3.32 3.32 0 0 0-.808.808z"/>
  </g>
</svg>
