<svg width="35" height="34" xmlns="http://www.w3.org/2000/svg">
  <g fill="#FFF" fill-rule="nonzero">
    <path d="M11.074 10.753a4.393 4.393 0 0 0-1.962 3.663v.794h1.139v-.794a3.257 3.257 0 0 1 1.455-2.716l-.632-.947zM33.198 2.288l-9.848 9.84-1.473-1.47L31.725.816 30.92.012 20.764 10.16l-6.706 2.233a.569.569 0 0 0-.223.943l6.834 6.828a.57.57 0 0 0 .942-.222l2.236-6.7L34.003 3.092l-.805-.805zM20.822 18.71l-1.295-1.295 2.018-3.027-.947-.631-1.893 2.837-1.295-1.296 2.839-1.891-.632-.947-3.029 2.017-1.296-1.295 5.625-1.874 1.78 1.779-1.875 5.623z"/>
    <path d="M33.757 20.353l-5.524-1.577a3.611 3.611 0 0 0-2.09.04 14.386 14.386 0 0 0 1.193-5.712c0-.277-.021-.553-.064-.826l-1.126.176c.035.215.051.432.051.65a13.238 13.238 0 0 1-1.392 5.894l-.826 1.65a.586.586 0 0 0-.057.192l-.978 8.799a1.051 1.051 0 0 1-2.085.04l-1.248-8.314a2.554 2.554 0 0 0-5.052 0l-1.247 8.313a1.051 1.051 0 0 1-2.085-.04l-.98-8.8a.587.587 0 0 0-.056-.192l-.826-1.65a13.239 13.239 0 0 1-1.392-5.892 4.156 4.156 0 0 1 5.793-3.818 8.466 8.466 0 0 0 6.638 0l-.448-1.046a7.33 7.33 0 0 1-5.742 0 5.298 5.298 0 0 0-7.38 4.864c.004 1.966.411 3.91 1.196 5.712a3.613 3.613 0 0 0-2.09-.04L.416 20.353A.57.57 0 0 0 0 20.9v12.519a.57.57 0 0 0 .57.569H33.6a.57.57 0 0 0 .57-.57V20.9a.57.57 0 0 0-.413-.547zM33.03 32.85H1.14V21.329l5.111-1.46a2.496 2.496 0 0 1 2.879 1.215l.968 8.68a2.19 2.19 0 0 0 4.344.083l1.248-8.313a1.414 1.414 0 0 1 2.797 0l1.248 8.313a2.19 2.19 0 0 0 4.344-.083l.968-8.68a2.496 2.496 0 0 1 2.878-1.214l5.107 1.459v11.52zM7.394 4.872a.57.57 0 0 0-.467-.466 2.202 2.202 0 0 1-1.81-1.81.57.57 0 0 0-1.123 0 2.202 2.202 0 0 1-1.81 1.81.57.57 0 0 0 0 1.122 2.202 2.202 0 0 1 1.81 1.809.57.57 0 0 0 1.124 0 2.202 2.202 0 0 1 1.81-1.81.57.57 0 0 0 .466-.655zm-2.838.907a3.341 3.341 0 0 0-.813-.812c.316-.222.591-.497.813-.813.222.316.497.591.813.813a3.341 3.341 0 0 0-.813.812z"/>
  </g>
</svg>
