<svg width="23" height="37" xmlns="http://www.w3.org/2000/svg">
  <g fill="#71BAEE" fill-rule="nonzero" stroke="#71BAEE" stroke-width=".3">
    <path d="M16.575 1c-.734 0-1.461.149-2.136.439-1.879.8-4.003.8-5.881 0A5.425 5.425 0 0 0 1 6.425a14.75 14.75 0 0 0 1.526 6.516l.831 2.81a.583.583 0 0 0 .56.416h1.75v2.916c0 .322.26.584.583.584H8v1.357l-1.686-.187-.128 1.16L8 22.198v2.326l-1.686-.187-.128 1.16L8 25.698v2.326l-1.686-.187-.128 1.16L8 29.198v2.326l-1.686-.187-.128 1.16 1.853.205v.014l1.167 2.917A.583.583 0 0 0 9.75 36h3.5a.583.583 0 0 0 .542-.367l.875-2.194 2.017.224.128-1.16L15 32.302v-2.326l1.686.187.128-1.16L15 28.802v-2.326l1.686.187.128-1.16L15 25.302v-2.326l1.686.187.128-1.16L15 21.802v-2.135h1.75a.583.583 0 0 0 .583-.584v-2.916h1.75c.259 0 .486-.17.56-.418l.831-2.81A14.75 14.75 0 0 0 22 6.426 5.43 5.43 0 0 0 16.575 1zm-3.722 33.833h-2.708L9.35 32.85l4.115.457-.613 1.526zm.98-2.66l-4.666-.52v-2.325l4.666.518v2.326zm0-3.5l-4.666-.52v-2.325l4.666.518v2.326zm0-3.5l-4.666-.52v-2.325l4.666.518v2.326zm0-3.5l-4.666-.52v-1.486h4.666v2.005zm2.334-3.173H6.833v-2.333h9.334V18.5zm3.24-6.036a.592.592 0 0 0-.037.095L18.648 15H4.352l-.722-2.44a.592.592 0 0 0-.037-.096 13.571 13.571 0 0 1-1.426-6.039A4.258 4.258 0 0 1 8.1 2.511a8.667 8.667 0 0 0 6.8 0 4.258 4.258 0 0 1 5.933 3.914 13.571 13.571 0 0 1-1.426 6.04z"/>
    <path d="M5.375 3.41a3.84 3.84 0 0 0-2.042 3.31v.697H4.5v-.7A2.69 2.69 0 0 1 5.958 4.42l-.583-1.01z"/>
  </g>
</svg>
