<svg width="20" height="25" xmlns="http://www.w3.org/2000/svg">
  <g fill="#353535" fill-rule="evenodd">
    <path d="M10 17.53a.76.76 0 0 1-.54-.222l-3.048-3.05a.76.76 0 1 1 1.078-1.077l2.51 2.51 2.51-2.51a.76.76 0 1 1 1.077 1.078l-3.049 3.049a.756.756 0 0 1-.538.222z"/>
    <path d="M10 17.53a.762.762 0 0 1-.762-.762V9.146a.762.762 0 1 1 1.524 0v7.622a.762.762 0 0 1-.762.762zM14.573 20.58H5.427a.762.762 0 1 1 0-1.525h9.146a.762.762 0 1 1 0 1.524z"/>
    <path d="M17.953 24.39H2.048c-1.078 0-1.957-.855-1.957-1.907V6.825c0-.663.269-1.311.738-1.78L5.136.738A2.498 2.498 0 0 1 6.916 0h11.036c1.079 0 1.956.856 1.956 1.907v20.577c0 1.05-.876 1.906-1.955 1.906zM6.916 1.524a.987.987 0 0 0-.702.291L1.906 6.122a1 1 0 0 0-.29.702v15.658c0 .211.194.384.432.384h15.904c.239 0 .432-.172.432-.382V1.906c0-.21-.193-.382-.432-.382H6.916z"/>
    <path d="M5.808 7.622H3.14a.762.762 0 1 1 0-1.524h2.668c.21 0 .38-.171.38-.382V3.05a.762.762 0 1 1 1.525 0v2.667c0 1.05-.855 1.906-1.905 1.906z"/>
  </g>
</svg>
