<?xml version="1.0" encoding="UTF-8"?>
<svg width="36px" height="36px" viewBox="0 0 36 36" version="1.1" xmlns="http://www.w3.org/2000/svg" xmlns:xlink="http://www.w3.org/1999/xlink">
    <!-- Generator: Sketch 52.2 (67145) - http://www.bohemiancoding.com/sketch -->
    <title>Fill 1</title>
    <desc>Created with Sketch.</desc>
    <g id="Page-1" stroke="none" stroke-width="1" fill="none" fill-rule="evenodd">
        <g id="contact" transform="translate(-733.000000, -652.000000)" fill="#E2605B" stroke="#E2605B" stroke-width="0.5">
            <path d="M750.999828,653.000038 C741.61139,653.000038 734,660.611496 734,670.000019 C734,679.388542 741.61139,687 750.999828,687 C753.86411,687 756.567461,686.290194 758.936103,685.037333 C759.203201,684.895667 759.306499,684.563638 759.164834,684.29655 C759.023169,684.027973 758.691143,683.92615 758.424057,684.067817 C756.207582,685.239531 753.682616,685.903588 751.000043,685.903588 C746.60691,685.903588 742.634239,684.123917 739.755224,681.246349 C736.876171,678.365796 735.096515,674.39309 735.096515,669.999917 C735.096515,665.606744 736.876171,661.634037 739.753713,658.754996 C742.634239,655.875917 746.60691,654.096246 751.000043,654.096246 C755.393177,654.096246 759.365848,655.875917 762.244863,658.753485 C765.123916,661.632564 766.90206,665.605233 766.90206,669.998406 C766.90206,671.212884 766.766296,672.39495 766.509516,673.529755 C766.299968,674.441748 765.836625,675.245998 765.206498,675.814137 C764.573424,676.382276 763.782479,676.718725 762.860181,676.720198 C761.791799,676.720198 760.83554,676.261274 760.170015,675.529331 C760.139026,675.495391 760.10066,675.476208 760.063766,675.451119 C760.229042,675.08072 760.322009,674.67048 760.322009,674.238114 L760.322009,665.81179 C760.322009,664.159014 758.982082,662.819076 757.329321,662.819076 L744.66936,662.820553 C743.016599,662.820553 741.676673,664.160491 741.676673,665.813267 L741.676673,674.241102 C741.676673,675.893878 743.016599,677.233817 744.66936,677.233817 L757.330832,677.233817 C758.157213,677.233817 758.905394,676.898834 759.446971,676.357256 C760.307276,677.255951 761.518834,677.81967 762.861708,677.81967 C764.061442,677.821147 765.129825,677.365166 765.941434,676.631749 C766.75599,675.898332 767.322651,674.894842 767.579424,673.777755 L767.579424,673.776281 C767.8539,672.560292 768,671.297117 768,669.999981 C768,660.611458 760.38861,653 751.000172,653 L750.999828,653.000038 Z M743.329128,664.472003 C743.674436,664.128165 744.143684,663.917123 744.669054,663.917123 L757.330526,663.917123 C757.855859,663.917123 758.326603,664.128146 758.670453,664.472003 C758.952306,664.755336 759.13825,665.125747 759.198732,665.537448 L752.060693,670.321621 L752.045937,670.331949 C751.733095,670.557732 751.367115,670.668405 750.999692,670.669882 C750.632246,670.669882 750.266282,670.557728 749.953447,670.331949 L749.938688,670.321621 L742.80216,665.538959 C742.861187,665.125747 743.047123,664.755374 743.328965,664.472041 L743.329128,664.472003 Z M759.225101,674.239436 C759.225101,674.764774 759.01408,675.235522 758.670226,675.579375 C758.324918,675.923213 757.85567,676.134254 757.3303,676.134254 L744.668828,676.135731 C744.143495,676.135731 743.672751,675.924709 743.328901,675.580852 C742.985066,675.235541 742.774027,674.766288 742.774027,674.240914 L742.774027,666.840255 L749.327649,671.231917 L749.327649,671.23044 C749.827898,671.584606 750.41375,671.764655 750.999601,671.764655 C751.58398,671.764655 752.171305,671.586094 752.671553,671.23044 L752.673031,671.231917 L759.226653,666.840255 L759.225101,674.239436 Z" id="Fill-1"></path>
        </g>
    </g>
</svg>