<svg width="28" height="33" xmlns="http://www.w3.org/2000/svg">
  <g fill="#FFF" fill-rule="nonzero" stroke="#FFF" stroke-width=".1">
    <path d="M20.977 1a7.022 7.022 0 0 0-3.378.865 6.478 6.478 0 0 1-6.265 0A7.04 7.04 0 0 0 7.956 1c-3.84.004-6.95 3.079-6.955 6.873v1.11a16.473 16.473 0 0 0 3.264 9.8l2.37 12.189c.255 1.311 1.538 2.17 2.865 1.918a2.43 2.43 0 0 0 1.961-2.033l1.692-11.703a1.323 1.323 0 0 1 1.5-1.11c.582.083 1.04.535 1.123 1.11l1.695 11.704c.19 1.322 1.43 2.24 2.767 2.052a2.435 2.435 0 0 0 2.058-1.937l2.37-12.188a16.474 16.474 0 0 0 3.267-9.802v-1.11C27.933 4.077 24.818 1 20.977 1zm5.879 7.983a15.41 15.41 0 0 1-3.124 9.261.528.528 0 0 0-.098.219L21.238 30.77a1.37 1.37 0 0 1-1.605 1.073 1.361 1.361 0 0 1-1.096-1.137l-1.692-11.703c-.188-1.297-1.405-2.199-2.718-2.013a2.388 2.388 0 0 0-2.038 2.013l-1.692 11.703a1.368 1.368 0 0 1-1.55 1.147 1.363 1.363 0 0 1-1.151-1.083L5.3 18.463a.53.53 0 0 0-.098-.219 15.41 15.41 0 0 1-3.124-9.26V7.872c0-3.208 2.633-5.809 5.88-5.808.998 0 1.98.251 2.853.73a7.56 7.56 0 0 0 7.312 0 5.911 5.911 0 0 1 5.006-.322l-4.231 5.109a.528.528 0 0 0 .076.749c.096.078.217.12.34.12h3.01l-4.467 4.414.761.752 5.387-5.322a.528.528 0 0 0 0-.752.542.542 0 0 0-.38-.156H20.45l3.658-4.418a5.785 5.785 0 0 1 2.747 4.904v1.11z"/>
    <path d="M6.926 4.726l-.108-.522c-1.077.213-3.124 1.376-3.124 4.247H4.77c0-2.699 2.171-3.185 2.263-3.204l-.108-.521zM8.003 4.193H9.08v1.064H8.003z"/>
  </g>
</svg>
