<svg width="36" height="34" xmlns="http://www.w3.org/2000/svg">
  <g fill="#FFF" fill-rule="nonzero">
    <path d="M13.577 14.56l-1.87.749a1.245 1.245 0 0 1-1.576-1.71l.412-.824a1.2 1.2 0 0 0-.225-1.385l-2.87-2.87.776-.776a.6.6 0 0 0 0-.848L3.9 2.506a1 1 0 0 0-1.42-.004L.646 4.335a1 1 0 0 0-.005 1.41l4.335 4.399a.6.6 0 0 0 .848 0l.776-.776 2.87 2.87-.41.822a2.443 2.443 0 0 0 3.094 3.36l1.872-.748-.45-1.112zM5.4 8.87L1.576 5.034l1.552-1.551L6.952 7.32 5.4 8.871zM35.63 15.445a.6.6 0 0 0-.654.13l-8.4 8.4a.6.6 0 0 0 0 .849l.476.476-2.355 2.354A5.796 5.796 0 0 0 21.6 26.8c-2.647 0-4.8 1.614-4.8 3.6 0 1.985 2.153 3.6 4.8 3.6s4.8-1.615 4.8-3.6a2.98 2.98 0 0 0-.785-1.967l2.285-2.285.476.476a.6.6 0 0 0 .848 0l6.6-6.6A.6.6 0 0 0 36 19.6V16a.6.6 0 0 0-.37-.555zM21.6 32.8c-1.951 0-3.6-1.1-3.6-2.4 0-1.301 1.649-2.4 3.6-2.4s3.6 1.099 3.6 2.4c0 1.3-1.649 2.4-3.6 2.4zM34.8 19.35l-6 6-.952-.951 6.952-6.952v1.903z"/>
    <path d="M20.687 18.276a2.725 2.725 0 0 0-5.374 0L13.5 29.152a1.493 1.493 0 0 1-2.953-.043l-1.552-11.39a.6.6 0 0 0-.086-.24l-.334-.534a16.9 16.9 0 0 1-2.166-5.28l-1.172.261a18.105 18.105 0 0 0 2.323 5.658l.265.425L9.361 29.27a2.693 2.693 0 0 0 5.325.079l1.812-10.876A1.52 1.52 0 0 1 18 17.2a1.52 1.52 0 0 1 1.504 1.274l1.204 7.225 1.184-.198-1.205-7.225zM23.63.4a7.57 7.57 0 0 0-2.981.612 6.757 6.757 0 0 1-5.298 0 7.57 7.57 0 0 0-8.596 1.88l.89.808a6.382 6.382 0 0 1 4.725-2.1 6.335 6.335 0 0 1 2.508.515c1.994.85 4.25.85 6.244 0A6.37 6.37 0 0 1 30 7.969a16.92 16.92 0 0 1-2.575 8.979l-.334.534a.6.6 0 0 0-.086.24l-.49 3.6 1.188.162.474-3.472.265-.425A18.12 18.12 0 0 0 31.2 7.969 7.57 7.57 0 0 0 23.63.4z"/>
  </g>
</svg>
