<?xml version="1.0" encoding="UTF-8"?>
<svg width="34px" height="34px" viewBox="0 0 34 34" version="1.1" xmlns="http://www.w3.org/2000/svg" xmlns:xlink="http://www.w3.org/1999/xlink">
    <!-- Generator: Sketch 52.2 (67145) - http://www.bohemiancoding.com/sketch -->
    <title>Group 5</title>
    <desc>Created with Sketch.</desc>
    <g id="Page-1" stroke="none" stroke-width="1" fill="none" fill-rule="evenodd">
        <g id="contact" transform="translate(-506.000000, -652.000000)" fill="#E2605B" stroke="#E2605B" stroke-width="0.6">
            <g id="Group-5" transform="translate(507.000000, 653.000000)">
                <path d="M25.770449,24.474449 L25.6531004,24.3979167 C25.250031,24.1224065 23.4337045,22.9387167 22.2346514,22.1530188 C21.7244473,21.8163004 21.2958759,21.5458678 21.1377045,21.4387331 C19.9718922,20.6989453 18.4310596,20.9986678 17.6275004,22.1224229 L17.4846433,22.3009959 C17.0356637,22.8622367 16.5713698,23.4489469 15.8264882,23.4897633 C14.7652637,23.5560882 13.2754678,22.6019918 11.3468147,20.6734367 C9.41816163,18.7448816 8.46926367,17.2347429 8.52539429,16.1937633 C8.57131102,15.4437551 9.15295347,14.9794612 9.71416163,14.5304816 L9.87742694,14.3672163 C10.9935086,13.5598041 11.2830433,12.0202776 10.535582,10.8622367 L9.86211265,9.84182857 C9.06110041,8.62243265 7.85701878,6.78060408 7.58149224,6.36231837 L7.50496,6.25007347 C7.09170286,5.63782857 6.40801306,4.61742041 4.95393959,4.82659592 C3.95393959,4.95414531 0.183652898,6.91332245 0.183652898,11.1684735 C0.183652898,14.8674122 2.8877182,19.6889633 7.60210286,24.4030857 C12.3164865,29.1172082 17.1276539,31.8163105 20.8265927,31.8163105 C25.0816131,31.8163105 27.0460212,28.0409633 27.1887151,27.0254531 C27.3978971,25.5713796 26.3774824,24.8825959 25.7703314,24.4744327 L25.770449,24.474449 Z M26.1786122,26.8826122 C26.0663673,27.6785306 24.3673796,30.7957561 20.826449,30.7957561 C17.3978776,30.7957561 12.8365714,28.2039184 8.31640816,23.652898 C3.7962449,19.1018776 1.20424359,14.596898 1.20424359,11.1683265 C1.21317224,9.97573878 1.5958191,8.81629388 2.29737012,7.85338776 C2.9988898,6.8891102 3.9861551,6.16973061 5.11751837,5.79598367 L5.33690776,5.79598367 C5.95424653,5.79598367 6.28587102,6.21433469 6.67875265,6.81639184 L6.76038531,6.93374041 C7.03079184,7.33171592 8.22977306,9.17863837 9.02569143,10.3979037 L9.70425469,11.4183118 C10.1570547,12.1415118 9.95935673,13.0943282 9.2552751,13.5764833 L9.08180571,13.71424 C8.44915265,14.2244441 7.55119347,14.9081012 7.51037714,16.1122155 C7.42874449,17.4999706 8.41852408,19.17344 10.6226057,21.3722971 C12.8266873,23.5711543 14.5053812,24.5712849 15.8826873,24.4896522 C17.086769,24.4182237 17.7806465,23.5508767 18.2857535,22.9131298 L18.4235102,22.7396604 C18.9069388,22.0291951 19.8661257,21.8302073 20.5918727,22.2906808 L21.6888196,23.0100604 C22.8878073,23.7906645 24.6990367,24.9692441 25.0919216,25.2396441 L25.2143706,25.3212767 C25.8419298,25.754942 26.2909094,26.1171951 26.2041502,26.8824849 L26.1786122,26.8826122 Z" id="Fill-1"></path>
                <path d="M14.9795918,0.183673469 L14.9795918,1.20408163 C19.1748571,1.20408163 23.1977143,2.8699102 26.1632653,5.83689796 C29.1300898,8.80244898 30.7960816,12.8253061 30.7960816,17.0205714 L31.8164898,17.0205714 C31.8164898,12.5549388 30.0422531,8.27314286 26.8852245,5.11493878 C23.7270531,1.95804082 19.4452245,0.183673469 14.9795918,0.183673469 Z" id="Fill-2"></path>
                <path d="M25.6940408,17.0204082 L26.714449,17.0204082 C26.714449,13.9081796 25.4784653,10.9234286 23.2770612,8.72326531 C21.0768,6.52173061 18.0920816,5.28587755 14.9799184,5.28587755 L14.9799184,6.30628571 C17.8217469,6.30628571 20.5462857,7.43510204 22.5564082,9.44404898 C24.5653224,11.4542367 25.6941714,14.1787429 25.6941714,17.0205388 L25.6940408,17.0204082 Z" id="Fill-3"></path>
                <path d="M20.0816327,17.0204082 L21.1020408,17.0204082 C21.1020408,15.3966694 20.4566204,13.8392816 19.3086694,12.6912653 C18.1607184,11.5433143 16.603298,10.8978939 14.9795265,10.8978939 L14.9795265,11.918302 C16.3328327,11.918302 17.6300408,12.4552816 18.5867102,13.4131918 C19.5446204,14.3698286 20.0816,15.6670041 20.0816,17.0203755 L20.0816327,17.0204082 Z" id="Fill-4"></path>
            </g>
        </g>
    </g>
</svg>