<?xml version="1.0" encoding="UTF-8"?>
<svg width="38px" height="38px" viewBox="0 0 38 38" version="1.1" xmlns="http://www.w3.org/2000/svg" xmlns:xlink="http://www.w3.org/1999/xlink">
    <!-- Generator: Sketch 52.3 (67297) - http://www.bohemiancoding.com/sketch -->
    <title>tooth (3)</title>
    <desc>Created with Sketch.</desc>
    <g id="Page-1" stroke="none" stroke-width="1" fill="none" fill-rule="evenodd">
        <g id="2b" transform="translate(-664.000000, -1896.000000)" fill="#71BAEE" stroke="#71BAEE" stroke-width="0.3">
            <g id="tooth-(3)" transform="translate(665.000000, 1896.854470)">
                <path d="M35.5202495,20.100948 L29.1423368,18.2927152 C28.4974054,18.1115925 27.8112349,18.1439252 27.1862121,18.3849231 L27.5454636,17.5538545 L28.8100291,16.2258212 C30.4202245,14.5304532 31.6158586,12.4851143 32.3031518,10.2502703 C33.2029272,7.30949688 31.5484241,4.19613306 28.6076507,3.29628274 C27.888474,3.07624116 27.1322495,3.00416632 26.3844823,3.08439917 C24.3001497,3.30451559 22.2161913,2.6658711 20.613106,1.31568399 C18.2643493,-0.669480249 14.7509439,-0.374819127 12.7657796,1.97401247 C12.2801913,2.54851559 11.916,3.21552599 11.6952848,3.93462786 C11.0127069,6.1711185 10.8575551,8.53536798 11.2420291,10.8418378 L11.5455967,12.6506694 L10.249896,19.5117755 C9.49127651,18.4197256 8.12282744,17.9300208 6.84359252,18.2927152 L0.465679834,20.100948 C0.208141372,20.1740707 0.0303866944,20.4092308 0.0303866944,20.676948 L0.0303866944,35.53679 C0.0303866944,35.8674511 0.29847817,36.1355426 0.629139293,36.1355426 L35.35679,36.1355426 C35.6874511,36.1355426 35.9555426,35.8674511 35.9555426,35.53679 L35.9555426,20.676948 C35.9555426,20.4092308 35.7777879,20.1740707 35.5202495,20.100948 Z M11.0127069,21.9241497 L12.7419044,12.7680249 C12.7541788,12.6984948 12.7541788,12.6273929 12.7419044,12.5578628 L12.4203742,10.6418545 C12.067185,8.51852807 12.2106611,6.3422869 12.839501,4.28370062 C13.5483493,1.97618295 15.9936549,0.680182952 18.3012474,1.38903119 C18.8651975,1.56229522 19.3882827,1.84790021 19.8389189,2.2287817 C21.6923576,3.79107692 24.1026362,4.53016216 26.5132141,4.27531809 C28.9133888,4.01770478 31.068,5.75461123 31.3256133,8.15478586 C31.388632,8.74156341 31.3321247,9.33507692 31.1595343,9.89940125 C30.5262037,11.9564158 29.4253222,13.8389688 27.9430353,15.3995426 L26.6048233,16.804815 C26.5559501,16.8557089 26.516657,16.9149106 26.4886653,16.9796507 L22.791368,25.5328316 C22.5487983,26.0933389 21.8977297,26.3511019 21.3371476,26.1084574 C20.8775301,25.9095218 20.6089148,25.4264782 20.6825613,24.9310852 L21.9908358,16.1833098 C22.1800416,14.8706944 21.3881913,13.6149605 20.1221289,13.2200832 C19.8709522,13.1427692 19.6095218,13.1036258 19.3467443,13.1039252 C18.3113514,13.1045988 17.3671933,13.6962412 16.91521,14.6277505 L13.0969647,22.6067277 C12.8333638,23.1576549 12.1730146,23.3905696 11.6220873,23.1269688 C11.1697297,22.9105198 10.9196008,22.4168482 11.0127069,21.9241497 Z M20.1843992,20.1656133 C18.7121414,20.6590603 17.1092807,20.5901289 15.6847734,19.9722162 L17.9929647,15.144474 C18.3449563,14.4022453 19.2319335,14.0859543 19.9740873,14.4379459 C20.567526,14.7193597 20.9061206,15.3568067 20.8071019,16.006079 L20.8071019,16.0030852 L20.1843992,20.1656133 Z M10.8079335,24.0263701 C11.8367401,24.7478669 13.2557089,24.498711 13.977131,23.4698295 C14.0538462,23.3604823 14.1207568,23.2445489 14.1771143,23.1234511 L15.1692474,21.0469771 C16.6815468,21.7312765 18.382079,21.8790936 19.9898046,21.466104 L19.4982287,24.7514595 C19.3101455,26.0095884 20.1776632,27.1820208 21.4357921,27.370104 C22.4687152,27.5245073 23.4762661,26.9645988 23.8906778,26.0058462 L25.1779958,23.0306445 L25.1779958,30.6785114 C25.1656466,31.7296965 24.3034428,32.5717672 23.2522578,32.5594179 C22.487052,32.5504366 21.8016299,32.0840083 21.5124324,31.3754595 L20.1903867,28.094894 C19.6967152,26.8812973 18.3126985,26.2976632 17.0991019,26.7913347 C16.5065613,27.0323326 16.0365405,27.5024283 15.7955426,28.094894 L14.4734969,31.3760582 C14.0761497,32.3493306 12.9650894,32.8162079 11.991817,32.4189356 C11.2831185,32.1296632 10.8166902,31.4439418 10.8079335,30.6785114 L10.8079335,24.0263701 Z M34.7580374,34.9380374 L1.22789189,34.9380374 L1.22789189,21.129605 L7.17051143,19.4441164 C8.05397089,19.1917422 8.99244075,19.6006154 9.4092474,20.4194844 C9.54112266,20.6820374 9.60997921,20.971684 9.61042827,21.2655218 L9.61042827,30.6785114 C9.62210395,32.3910936 11.0198919,33.7698711 12.732474,33.7581954 C13.9866362,33.7495884 15.1120665,32.9864782 15.584183,31.8245239 L16.9062287,28.5439584 C17.1526154,27.9437838 17.8389356,27.6569813 18.4391102,27.903368 C18.7297297,28.0226694 18.9603992,28.2533389 19.0797006,28.5439584 L20.4017464,31.8245239 C21.0463784,33.4111435 22.85521,34.1748524 24.4418295,33.5302204 C25.6037838,33.0581788 26.3669688,31.9326736 26.375501,30.6785114 L26.375501,21.2655218 C26.3759501,20.971684 26.4448067,20.6820374 26.5766819,20.4194844 C26.9934886,19.6006154 27.9319584,19.1917422 28.8154179,19.4441164 L34.7580374,21.129605 L34.7580374,34.9380374 Z" id="Shape" fill-rule="nonzero"></path>
                <path d="M16.6816965,2.87723077 C15.1969397,3.31978378 14.0324407,4.4765738 13.580158,5.95841164 L13.3352682,6.75654886 L14.4800832,7.10741788 L14.724973,6.30928067 C15.0603493,5.21041996 15.9237505,4.35263202 17.0247817,4.02444075 L16.6816965,2.87723077 Z" id="Path"></path>
            </g>
        </g>
    </g>
</svg>